<?xml version="1.0" encoding="UTF-8" standalone="no"?>
<svg
   aria-hidden="true"
   focusable="false"
   role="img"
   viewBox="0 0 512 512"
   version="1.1"
   id="svg19"
   sodipodi:docname="heart-solid-sovrapposto.svg"
   inkscape:version="1.1.1 (3bf5ae0d25, 2021-09-20)"
   xmlns:inkscape="http://www.inkscape.org/namespaces/inkscape"
   xmlns:sodipodi="http://sodipodi.sourceforge.net/DTD/sodipodi-0.dtd"
   xmlns="http://www.w3.org/2000/svg"
   xmlns:svg="http://www.w3.org/2000/svg">
  <defs
     id="defs7" />
  <sodipodi:namedview
     id="namedview5"
     pagecolor="#ffffff"
     bordercolor="#666666"
     borderopacity="1.0"
     inkscape:pageshadow="2"
     inkscape:pageopacity="0.0"
     inkscape:pagecheckerboard="0"
     showgrid="false"
     inkscape:zoom="1.5664062"
     inkscape:cx="256.3192"
     inkscape:cy="256.3192"
     inkscape:window-width="1920"
     inkscape:window-height="991"
     inkscape:window-x="-9"
     inkscape:window-y="-9"
     inkscape:window-maximized="1"
     inkscape:current-layer="svg19" />
  <path
     fill="currentColor"
     d="M472.1 270.5l-193.1 199.7c-12.64 13.07-33.27 13.08-45.91 .0107l-193.2-199.7C-16.21 212.5-13.1 116.7 49.04 62.86C103.3 15.88 186.4 24.42 236.3 75.98l19.7 20.27l19.7-20.27c49.95-51.56 132.1-60.1 187.3-13.12C525.1 116.6 528.2 212.5 472.1 270.5z"
     id="path17"
     style="fill:#ffffff;fill-opacity:1" />
  <path
     fill="currentColor"
     d="M 415.81067,261.30182 273.86454,397.19276 c -9.29156,8.8938 -24.45648,8.90062 -33.74803,0.008 L 98.096874,261.3091 C 56.858261,221.83425 59.144395,156.64472 104.82296,120.00791 144.70901,88.039182 205.79509,93.850442 242.47615,128.93576 l 14.48129,13.79324 14.48131,-13.79324 c 36.7178,-35.085318 97.10554,-40.896578 137.68258,-8.92785 45.64918,36.56876 47.92797,101.82634 6.68934,141.29391 z"
     id="path17-1"
     style="fill:#113755;fill-opacity:1;stroke-width:0.707256" />
</svg>
